<?xml version="1.0" encoding="UTF-8" standalone="no"?>
<!DOCTYPE svg PUBLIC "-//W3C//DTD SVG 1.1//EN"
 "http://www.w3.org/Graphics/SVG/1.1/DTD/svg11.dtd">
<!-- Generated by graphviz version 2.36.0 (20140111.2315)
 -->
<!-- Title: G Pages: 1 -->
<svg width="721pt" height="300pt"
 viewBox="0.00 0.00 721.00 300.00" xmlns="http://www.w3.org/2000/svg" xmlns:xlink="http://www.w3.org/1999/xlink">
<g id="graph0" class="graph" transform="scale(1 1) rotate(0) translate(4 296)">
<title>G</title>
<polygon fill="white" stroke="none" points="-4,4 -4,-296 717,-296 717,4 -4,4"/>
<!-- 1 -->
<g id="node1" class="node"><title>1</title>
<ellipse fill="none" stroke="brown" stroke-width="5" cx="388" cy="-266" rx="25.176" ry="25.4007"/>
<text text-anchor="middle" x="388" y="-258.8" font-family="Helvetica,sans-Serif" font-size="24.00" fill="brown">M</text>
</g>
<!-- 2 -->
<g id="node2" class="node"><title>2</title>
<path fill="none" stroke="black" stroke-width="5" d="M271,-162C271,-162 319,-162 319,-162 325,-162 331,-168 331,-174 331,-174 331,-186 331,-186 331,-192 325,-198 319,-198 319,-198 271,-198 271,-198 265,-198 259,-192 259,-186 259,-186 259,-174 259,-174 259,-168 265,-162 271,-162"/>
<text text-anchor="middle" x="294.838" y="-172.8" font-family="Helvetica,sans-Serif" font-size="24.00">E J</text>
</g>
<!-- 1&#45;&gt;2 -->
<g id="edge1" class="edge"><title>1&#45;&gt;2</title>
<path fill="none" stroke="brown" stroke-width="5" d="M369.626,-248.404C353.534,-233.869 330.242,-212.832 313.974,-198.138"/>
<text text-anchor="middle" x="179.204" y="-237.731" font-family="Helvetica,sans-Serif" font-size="24.00" fill="brown">H小于M，在左子树中继续查找</text>
</g>
<!-- 3 -->
<g id="node3" class="node"><title>3</title>
<ellipse fill="none" stroke="black" stroke-width="5" cx="470" cy="-180" rx="23.3533" ry="23.6388"/>
<text text-anchor="middle" x="470" y="-172.8" font-family="Helvetica,sans-Serif" font-size="24.00">R</text>
</g>
<!-- 1&#45;&gt;3 -->
<g id="edge2" class="edge"><title>1&#45;&gt;3</title>
<path fill="none" stroke="black" stroke-width="5" d="M405.39,-247.186C419.776,-232.449 440.044,-211.686 454.025,-197.364"/>
</g>
<!-- 4 -->
<g id="node4" class="node"><title>4</title>
<path fill="none" stroke="black" stroke-width="5" d="M89,-78C89,-78 137,-78 137,-78 143,-78 149,-84 149,-90 149,-90 149,-102 149,-102 149,-108 143,-114 137,-114 137,-114 89,-114 89,-114 83,-114 77,-108 77,-102 77,-102 77,-90 77,-90 77,-84 83,-78 89,-78"/>
<text text-anchor="middle" x="112.848" y="-88.8" font-family="Helvetica,sans-Serif" font-size="24.00">A C</text>
</g>
<!-- 2&#45;&gt;4 -->
<g id="edge3" class="edge"><title>2&#45;&gt;4</title>
<path fill="none" stroke="black" stroke-width="5" d="M258.607,-162.603C226.76,-148.255 180.755,-127.527 149.019,-113.228"/>
</g>
<!-- 5 -->
<g id="node5" class="node"><title>5</title>
<ellipse fill="none" stroke="black" stroke-width="5" cx="263" cy="-96" rx="23.3533" ry="23.6388"/>
<text text-anchor="middle" x="263" y="-88.8" font-family="Helvetica,sans-Serif" font-size="24.00">H</text>
</g>
<!-- 2&#45;&gt;5 -->
<g id="edge4" class="edge"><title>2&#45;&gt;5</title>
<path fill="none" stroke="black" stroke-width="5" d="M288.214,-161.61C283.26,-148.917 276.519,-131.643 271.254,-118.15"/>
</g>
<!-- 6 -->
<g id="node6" class="node"><title>6</title>
<ellipse fill="none" stroke="black" stroke-width="5" cx="327" cy="-96" rx="22.4401" ry="22.7556"/>
<text text-anchor="middle" x="327" y="-88.8" font-family="Helvetica,sans-Serif" font-size="24.00">L</text>
</g>
<!-- 2&#45;&gt;6 -->
<g id="edge5" class="edge"><title>2&#45;&gt;6</title>
<path fill="none" stroke="black" stroke-width="5" d="M301.786,-161.61C306.85,-148.634 313.781,-130.873 319.095,-117.257"/>
</g>
<!-- 7 -->
<g id="node7" class="node"><title>7</title>
<ellipse fill="none" stroke="black" stroke-width="5" cx="470" cy="-96" rx="22.4483" ry="22.7667"/>
<text text-anchor="middle" x="470" y="-88.8" font-family="Helvetica,sans-Serif" font-size="24.00">P</text>
</g>
<!-- 3&#45;&gt;7 -->
<g id="edge6" class="edge"><title>3&#45;&gt;7</title>
<path fill="none" stroke="black" stroke-width="5" d="M470,-156.158C470,-144.501 470,-130.389 470,-118.872"/>
</g>
<!-- 8 -->
<g id="node8" class="node"><title>8</title>
<path fill="none" stroke="black" stroke-width="5" d="M576,-78C576,-78 624,-78 624,-78 630,-78 636,-84 636,-90 636,-90 636,-102 636,-102 636,-108 630,-114 624,-114 624,-114 576,-114 576,-114 570,-114 564,-108 564,-102 564,-102 564,-90 564,-90 564,-84 570,-78 576,-78"/>
<text text-anchor="middle" x="599.842" y="-88.8" font-family="Helvetica,sans-Serif" font-size="24.00">S X</text>
</g>
<!-- 3&#45;&gt;8 -->
<g id="edge7" class="edge"><title>3&#45;&gt;8</title>
<path fill="none" stroke="black" stroke-width="5" d="M489.462,-166.724C511.562,-152.784 547.774,-129.942 572.693,-114.224"/>
</g>
<!-- n1 -->
<g id="node9" class="node"><title>n1</title>
</g>
<!-- 4&#45;&gt;n1 -->
<g id="edge8" class="edge"><title>4&#45;&gt;n1</title>
<path fill="none" stroke="black" stroke-width="5" d="M92.1238,-77.7544C77.0674,-65.3166 56.831,-48.5995 41.7936,-36.1773"/>
</g>
<!-- n2 -->
<g id="node10" class="node"><title>n2</title>
</g>
<!-- 4&#45;&gt;n2 -->
<g id="edge9" class="edge"><title>4&#45;&gt;n2</title>
<path fill="none" stroke="black" stroke-width="5" d="M105.966,-77.7544C100.892,-65.3166 94.0735,-48.5995 89.0065,-36.1773"/>
</g>
<!-- n3 -->
<g id="node11" class="node"><title>n3</title>
</g>
<!-- 4&#45;&gt;n3 -->
<g id="edge10" class="edge"><title>4&#45;&gt;n3</title>
<path fill="none" stroke="black" stroke-width="5" d="M119.807,-77.7544C124.717,-65.3166 131.316,-48.5995 136.219,-36.1773"/>
</g>
<!-- n4 -->
<g id="node12" class="node"><title>n4</title>
</g>
<!-- 5&#45;&gt;n4 -->
<g id="edge11" class="edge"><title>5&#45;&gt;n4</title>
<path fill="none" stroke="black" stroke-width="5" d="M249.018,-76.9891C239.408,-64.6107 226.728,-48.2763 217.274,-36.0988"/>
</g>
<!-- n5 -->
<g id="node13" class="node"><title>n5</title>
</g>
<!-- 5&#45;&gt;n5 -->
<g id="edge12" class="edge"><title>5&#45;&gt;n5</title>
<path fill="none" stroke="black" stroke-width="5" d="M263.6,-72.1975C263.904,-60.6546 264.267,-46.8717 264.547,-36.2278"/>
</g>
<!-- n6 -->
<g id="node14" class="node"><title>n6</title>
</g>
<!-- 6&#45;&gt;n6 -->
<g id="edge13" class="edge"><title>6&#45;&gt;n6</title>
<path fill="none" stroke="black" stroke-width="5" d="M326.711,-73.0177C326.556,-61.2687 326.369,-47.0193 326.225,-36.1062"/>
</g>
<!-- n7 -->
<g id="node15" class="node"><title>n7</title>
</g>
<!-- 6&#45;&gt;n7 -->
<g id="edge14" class="edge"><title>6&#45;&gt;n7</title>
<path fill="none" stroke="black" stroke-width="5" d="M340.615,-77.7544C350.434,-65.3166 363.632,-48.5995 373.439,-36.1773"/>
</g>
<!-- n8 -->
<g id="node16" class="node"><title>n8</title>
</g>
<!-- 7&#45;&gt;n8 -->
<g id="edge15" class="edge"><title>7&#45;&gt;n8</title>
<path fill="none" stroke="black" stroke-width="5" d="M463.872,-73.8298C460.439,-61.971 456.213,-47.3718 452.985,-36.2203"/>
</g>
<!-- n9 -->
<g id="node17" class="node"><title>n9</title>
</g>
<!-- 7&#45;&gt;n9 -->
<g id="edge16" class="edge"><title>7&#45;&gt;n9</title>
<path fill="none" stroke="black" stroke-width="5" d="M480.043,-75.4281C486.273,-63.2894 494.2,-47.8403 500.185,-36.1773"/>
</g>
<!-- n10 -->
<g id="node18" class="node"><title>n10</title>
</g>
<!-- 8&#45;&gt;n10 -->
<g id="edge17" class="edge"><title>8&#45;&gt;n10</title>
<path fill="none" stroke="black" stroke-width="5" d="M593.193,-77.7544C588.283,-65.3166 581.684,-48.5995 576.781,-36.1773"/>
</g>
<!-- n11 -->
<g id="node19" class="node"><title>n11</title>
</g>
<!-- 8&#45;&gt;n11 -->
<g id="edge18" class="edge"><title>8&#45;&gt;n11</title>
<path fill="none" stroke="black" stroke-width="5" d="M607.034,-77.7544C612.108,-65.3166 618.927,-48.5995 623.993,-36.1773"/>
</g>
<!-- n12 -->
<g id="node20" class="node"><title>n12</title>
</g>
<!-- 8&#45;&gt;n12 -->
<g id="edge19" class="edge"><title>8&#45;&gt;n12</title>
<path fill="none" stroke="black" stroke-width="5" d="M620.876,-77.7544C635.933,-65.3166 656.169,-48.5995 671.206,-36.1773"/>
</g>
</g>
</svg>
